<svg id="medical" xmlns="http://www.w3.org/2000/svg" width="38.941" height="38.31" viewBox="0 0 38.941 38.31">
  <path id="Path_1451" data-name="Path 1451" d="M32.515,23.41h-1.05L38.5,16.379A8.437,8.437,0,1,0,26.565,4.446L10.956,20.056a8.441,8.441,0,0,0-2.1,3.509,8.438,8.438,0,0,0,1.595,16.72H32.515a8.438,8.438,0,1,0,0-16.875ZM27.483,5.366a7.139,7.139,0,1,1,10.1,10.1L30.237,22.81l-10.1-10.1ZM11.876,20.975l7.344-7.347L29,23.41H10.448c-.058,0-.114.008-.171.008a7.14,7.14,0,0,1,1.6-2.444ZM3.308,31.847a7.148,7.148,0,0,1,7.14-7.14H20.832V38.987H10.448a7.148,7.148,0,0,1-7.14-7.14Zm29.207,7.14H22.131V24.708H32.515a7.14,7.14,0,0,1,0,14.279Z" transform="translate(-2.029 -1.975)" fill="#7359be"/>
  <path id="Path_1452" data-name="Path 1452" d="M7.3,48H6a5.848,5.848,0,0,0,5.841,5.841v-1.3A4.549,4.549,0,0,1,7.3,48Z" transform="translate(-3.422 -18.128)" fill="#7359be"/>
  <path id="Path_1453" data-name="Path 1453" d="M49,39v1.3a4.549,4.549,0,0,1,4.543,4.543h1.3A5.848,5.848,0,0,0,49,39Z" transform="translate(-18.513 -14.969)" fill="#7359be"/>
  <path id="Path_1454" data-name="Path 1454" d="M46.791,7.279A4.515,4.515,0,0,1,50,8.6l.916-.919a5.851,5.851,0,0,0-8.257,0l.918.918A4.515,4.515,0,0,1,46.791,7.279Z" transform="translate(-16.289 -3.381)" fill="#7359be"/>
</svg>
