<svg xmlns="http://www.w3.org/2000/svg" xmlns:xlink="http://www.w3.org/1999/xlink" width="29" height="19" viewBox="0 0 29 19">
  <defs>
    <clipPath id="clip-path">
      <path id="Rectangle_1062" data-name="Rectangle 1062" d="M14.5,0h0A14.5,14.5,0,0,1,29,14.5V19a0,0,0,0,1,0,0H0a0,0,0,0,1,0,0V14.5A14.5,14.5,0,0,1,14.5,0Z" transform="translate(0.549 566.911)" fill="#0de839" stroke="#707070" stroke-width="1"/>
    </clipPath>
  </defs>
  <g id="Mask_Group_4" data-name="Mask Group 4" transform="translate(-0.549 -566.911)" clip-path="url(#clip-path)">
    <path id="correct" d="M9.42,0a9.42,9.42,0,1,0,9.42,9.42A9.43,9.43,0,0,0,9.42,0Zm4.774,7.423-5.1,5.1a.784.784,0,0,1-1.11,0L5.43,9.975a.785.785,0,1,1,1.11-1.11l2,2,4.547-4.547a.785.785,0,1,1,1.11,1.11Zm0,0" transform="translate(5.629 566.992)" fill="#0de839"/>
  </g>
</svg>
