<svg xmlns="http://www.w3.org/2000/svg" width="25.552" height="20.112" viewBox="0 0 25.552 20.112">
  <path id="driver-license" d="M20.611,60.489H17.168a1,1,0,1,1,0-2h3.444a1,1,0,1,1,0,2Zm1,3.044a1,1,0,0,0-1-1H17.168a1,1,0,0,0,0,2h3.444A1,1,0,0,0,21.61,63.533Zm-2,6.089a1,1,0,1,0,1-1A1,1,0,0,0,19.613,69.622Zm-2,0a1,1,0,0,0-1-1H13.674a1,1,0,1,0,0,2h2.944A1,1,0,0,0,17.617,69.622Zm-6.937,0a1,1,0,0,0-1-1H4.991a1,1,0,1,0,0,2H9.682A1,1,0,0,0,10.68,69.622Zm0-3.993V59.491a1,1,0,0,0-1-1H4.991a1,1,0,0,0-1,1v6.139a1,1,0,0,0,1,1H9.682A1,1,0,0,0,10.68,65.629Zm-4.691-5.14H8.684v4.142H5.989Zm6.688-1a1,1,0,1,0,1-1A1,1,0,0,0,12.676,59.491Zm.05,4.042a1,1,0,1,0,1-1A1,1,0,0,0,12.726,63.533ZM25.552,70.62a1,1,0,1,0-2,0,2,2,0,0,1-2,2H3.993a2,2,0,0,1-2-2V58.493a2,2,0,0,1,2-2H21.56a2,2,0,0,1,2,2v7.137a1,1,0,1,0,2,0V58.493A4,4,0,0,0,21.56,54.5H3.993A4,4,0,0,0,0,58.493V70.62a4,4,0,0,0,3.993,3.993H21.56A4,4,0,0,0,25.552,70.62Z" transform="translate(0 -54.5)" fill="#fff"/>
</svg>
