<svg id="contact" xmlns="http://www.w3.org/2000/svg" width="20.644" height="20.644" viewBox="0 0 20.644 20.644">
  <g id="Group_1773" data-name="Group 1773">
    <path id="Path_3173" data-name="Path 3173" d="M20.039,19.434H15.18a4.254,4.254,0,1,1,4.254-4.254,1.015,1.015,0,1,1-2.029,0,2.228,2.228,0,1,0-.6,1.522,2.223,2.223,0,0,0,3.844-1.522A5.465,5.465,0,0,0,13.8,9.893a6.434,6.434,0,1,0-8.325,2.285A8.393,8.393,0,0,0,0,20.039a.6.6,0,0,0,.6.6H20.039a.6.6,0,0,0,0-1.21ZM15.18,16.2A1.015,1.015,0,1,1,16.2,15.18,1.016,1.016,0,0,1,15.18,16.2ZM3.153,6.435a5.225,5.225,0,1,1,5.225,5.225A5.231,5.231,0,0,1,3.153,6.435Zm-1.918,13a7.175,7.175,0,0,1,8.9-6.347,5.457,5.457,0,0,0,1.622,6.347Z" fill="#fff"/>
  </g>
</svg>
