<svg xmlns="http://www.w3.org/2000/svg" width="23.626" height="23.419" viewBox="0 0 23.626 23.419">
  <g id="Solid" transform="translate(-23.996 -26.036)">
    <path id="Path_3221" data-name="Path 3221" d="M166.682,29.461a8.3,8.3,0,0,1,9.339,1.037h-.992a1.222,1.222,0,0,0,0,2.444h3.738a1.222,1.222,0,0,0,1.222-1.222V27.982a1.222,1.222,0,1,0-2.444,0v.6a10.748,10.748,0,0,0-12.018-1.276,1.222,1.222,0,1,0,1.156,2.154Z" transform="translate(-133.713 0)" fill="#fff"/>
    <path id="Path_3222" data-name="Path 3222" d="M32.9,136.89a8.3,8.3,0,0,1-4.279-8,8.426,8.426,0,0,1,.122-.867l.522.9a1.222,1.222,0,1,0,2.117-1.222l-1.869-3.237a1.222,1.222,0,0,0-1.669-.447l-3.237,1.869a1.222,1.222,0,1,0,1.222,2.117l.485-.28q-.083.47-.126.951a10.745,10.745,0,0,0,5.54,10.357A1.222,1.222,0,1,0,32.9,136.89Z" transform="translate(0 -92.839)" fill="#fff"/>
    <path id="Path_3223" data-name="Path 3223" d="M269.84,211.806h-.006a1.222,1.222,0,0,0-1.216,1.228c0,.256-.01.516-.032.773a8.3,8.3,0,0,1-5.509,7.1l.5-.86a1.222,1.222,0,1,0-2.117-1.222l-1.866,3.232,0,.006a1.222,1.222,0,0,0,.448,1.669l3.237,1.869a1.222,1.222,0,1,0,1.222-2.117l-.523-.3a10.739,10.739,0,0,0,7.05-9.163c.029-.331.043-.667.041-1A1.222,1.222,0,0,0,269.84,211.806Z" transform="translate(-223.44 -176.31)" fill="#fff"/>
  </g>
</svg>
