<svg xmlns="http://www.w3.org/2000/svg" width="30.805" height="42.185" viewBox="0 0 30.805 42.185">
  <g id="Group_1772" data-name="Group 1772" transform="translate(3338.5 799.5)">
    <g id="Component_3_1" data-name="Component 3 – 1" transform="translate(-3338 -799)">
      <path id="Path_3171" data-name="Path 3171" d="M242.038,376.125a3.623,3.623,0,0,0-3.613,3.613v7.316a3.613,3.613,0,0,0,7.225,0v-7.316A3.623,3.623,0,0,0,242.038,376.125Z" transform="translate(-227.226 -349.481)" fill="none" stroke="#fff" stroke-width="1"/>
      <path id="Path_3172" data-name="Path 3172" d="M108.233,4.516h-6.955A6.434,6.434,0,0,0,89,4.516H82.131a1.806,1.806,0,1,0,0,3.613h6.955a6.238,6.238,0,0,0,2.8,3.613,11.84,11.84,0,0,0-8.49,11.29v9.483A3.007,3.007,0,0,0,86.376,35.5h2.439V30.347a6.413,6.413,0,0,1,12.825,0V35.5h2.439a3.007,3.007,0,0,0,2.981-2.981V23.122a11.757,11.757,0,0,0-8.49-11.29,6.238,6.238,0,0,0,2.8-3.613h6.955a1.812,1.812,0,0,0,1.806-1.806A1.969,1.969,0,0,0,108.233,4.516Zm-13.1,5.509A3.613,3.613,0,1,1,98.75,6.413,3.512,3.512,0,0,1,95.137,10.025Z" transform="translate(-80.325)" fill="none" stroke="#fff" stroke-width="1"/>
    </g>
  </g>
</svg>
