<svg xmlns="http://www.w3.org/2000/svg" width="17.897" height="25.495" viewBox="0 0 17.897 25.495">
  <g id="id-card" transform="translate(-76)">
    <path id="Path_3224" data-name="Path 3224" d="M91.647,2.191H87.973V.75a.75.75,0,0,0-.75-.75H82.674a.75.75,0,0,0-.75.75V2.191H78.25A2.252,2.252,0,0,0,76,4.441V23.246a2.252,2.252,0,0,0,2.25,2.25h13.4a2.252,2.252,0,0,0,2.25-2.25V4.441a2.252,2.252,0,0,0-2.25-2.25ZM83.424,1.5h3.049V4.274a1.525,1.525,0,0,1-3.049,0ZM92.4,23.246a.751.751,0,0,1-.75.75H78.25a.751.751,0,0,1-.75-.75V4.441a.751.751,0,0,1,.75-.75h3.674v.583a3.024,3.024,0,0,0,6.049,0V3.691h3.674a.751.751,0,0,1,.75.75Z" fill="#fff"/>
    <path id="Path_3225" data-name="Path 3225" d="M179.038,191.6h6.17a.75.75,0,0,0,.75-.75v-1.964a3.123,3.123,0,0,0-1.637-2.744,2.715,2.715,0,1,0-4.4,0,3.123,3.123,0,0,0-1.637,2.744v1.964A.75.75,0,0,0,179.038,191.6Zm3.085-8.265a1.216,1.216,0,1,1-1.216,1.216A1.217,1.217,0,0,1,182.123,183.333Zm-2.335,5.551a1.622,1.622,0,0,1,1.62-1.62h1.43a1.622,1.622,0,0,1,1.62,1.62V190.1h-4.67Z" transform="translate(-97.175 -172.743)" fill="#fff"/>
    <path id="Path_3226" data-name="Path 3226" d="M175.274,413H168a.75.75,0,1,0,0,1.5h7.274a.75.75,0,1,0,0-1.5Z" transform="translate(-86.688 -392.354)" fill="#fff"/>
  </g>
</svg>
