<svg xmlns="http://www.w3.org/2000/svg" width="20" height="18.197" viewBox="0 0 20 18.197">
  <g id="error" transform="translate(0 -20.359)">
    <path id="Path_208" data-name="Path 208" d="M19.761,35.723,11.638,21.3a1.891,1.891,0,0,0-3.274,0L.241,35.723a1.9,1.9,0,0,0,1.637,2.833H18.06A1.922,1.922,0,0,0,19.761,35.723Z" transform="translate(0 0)" fill="#fc3f93"/>
    <path id="Path_209" data-name="Path 209" d="M50.852,63.025l8.439,15.057H42.413l8.439-15.057Z" transform="translate(-40.852 -41.096)" fill="#fff"/>
    <g id="Group_209" data-name="Group 209" transform="translate(8.899 28.222)">
      <path id="Path_210" data-name="Path 210" d="M195.909,179.482l.419,2.774a.681.681,0,0,0,.68.576h0a.725.725,0,0,0,.68-.576l.419-2.774a1.089,1.089,0,0,0-1.1-1.256h0A1.116,1.116,0,0,0,195.909,179.482Z" transform="translate(-195.905 -178.226)" fill="#3f4448"/>
      <circle id="Ellipse_176" data-name="Ellipse 176" cx="0.628" cy="0.628" r="0.628" transform="translate(0.475 5.182)" fill="#3f4448"/>
    </g>
  </g>
</svg>
