<svg xmlns="http://www.w3.org/2000/svg" width="35.667" height="35.667" viewBox="0 0 35.667 35.667">
  <g id="refresh-navigational-arrows-interface-symbol-inside-a-circle" transform="translate(-0.002 0)">
    <path id="Path_3373" data-name="Path 3373" d="M5.219,30.449a17.842,17.842,0,1,0,0-25.232A17.862,17.862,0,0,0,5.219,30.449ZM6.6,6.6a15.885,15.885,0,1,1,0,22.466A15.9,15.9,0,0,1,6.6,6.6Zm7.421.758a10.566,10.566,0,0,1,2.268-.232,11.007,11.007,0,0,1,8.653,3.967l.009-.01,1.824-4.206a.342.342,0,0,1,.361-.2.346.346,0,0,1,.195.1.342.342,0,0,1,.1.2L28.8,17.447a.342.342,0,0,1-.1.286.346.346,0,0,1-.286.1l-10.478-1.37a.342.342,0,0,1-.092-.653l4.207-1.824.375-.375a7.258,7.258,0,0,0-6.076-2.957,8.018,8.018,0,0,0-1.569.141.158.158,0,0,1-.19-.121L13.9,7.55A.162.162,0,0,1,14.024,7.358Zm7.9,20.95a10.564,10.564,0,0,1-2.268.232,11.005,11.005,0,0,1-8.652-3.967l-.01.01L9.172,28.789a.342.342,0,0,1-.361.2.35.35,0,0,1-.2-.1.344.344,0,0,1-.1-.2L7.15,18.219a.341.341,0,0,1,.1-.286.345.345,0,0,1,.286-.1l10.477,1.371a.342.342,0,0,1,.092.653L13.9,21.683l-.375.375A7.257,7.257,0,0,0,19.6,25.014a8.048,8.048,0,0,0,1.569-.141.159.159,0,0,1,.19.121l.694,3.122A.161.161,0,0,1,21.926,28.308Z" transform="translate(0 0)" fill="#7359be"/>
  </g>
</svg>
