<svg xmlns="http://www.w3.org/2000/svg" width="18" height="23.631" viewBox="0 0 18 23.631">
  <g id="hourglass_1_" data-name="hourglass (1)" transform="translate(-61)">
    <g id="Group_207" data-name="Group 207" transform="translate(61)">
      <path id="Path_207" data-name="Path 207" d="M73.723,9.36A10.135,10.135,0,0,0,77.6,1.385H79V0H61V1.385h1.4A10.135,10.135,0,0,0,66.277,9.36c1.051.958,1.646,1.545,1.646,2.455s-.595,1.5-1.646,2.455A10.135,10.135,0,0,0,62.4,22.246H61v1.385H79V22.246H77.6a10.135,10.135,0,0,0-3.879-7.976c-1.051-.958-1.646-1.545-1.646-2.455S72.672,10.318,73.723,9.36ZM69.308,17a3.5,3.5,0,0,0-.631.194l-4.24,1.755a9.446,9.446,0,0,1,2.774-3.659c1.079-.983,2.1-1.912,2.1-3.478Zm3.482-1.711a9.447,9.447,0,0,1,2.774,3.659L71.324,17.2A3.5,3.5,0,0,0,70.692,17V11.815C70.692,13.382,71.711,14.31,72.79,15.294ZM64.412,4.615a10.258,10.258,0,0,1-.626-3.231h12.43a10.257,10.257,0,0,1-.626,3.231Z" transform="translate(-61)" fill="#e2744b"/>
    </g>
  </g>
</svg>
