<svg xmlns="http://www.w3.org/2000/svg" width="31.979" height="10.658" viewBox="0 0 31.979 10.658">
                            <g id="Group_1776" data-name="Group 1776" transform="translate(1567.504 1547.658) rotate(180)" opacity="0.5" fill="#777777">
                                <path id="Path_3175" data-name="Path 3175" d="M1767.707,1126.952a.726.726,0,0,1-.6-.32l-1.795-2.655a.727.727,0,0,1,1.2-.814l1.795,2.655a.727.727,0,0,1-.6,1.134Z" transform="translate(-229.534 419.243)" />
                                <path id="Path_3176" data-name="Path 3176" d="M1803.17,1106.319a.728.728,0,0,1-.662-.426l-1.424-3.134a.727.727,0,0,1,1.323-.6l1.424,3.135a.727.727,0,0,1-.661,1.028Z" transform="translate(-260.845 437.692)" />
                                <path id="Path_3177" data-name="Path 3177" d="M1845.356,1092.664a.727.727,0,0,1-.711-.58l-.731-3.551a.727.727,0,1,1,1.424-.293l.731,3.551a.727.727,0,0,1-.565.859A.744.744,0,0,1,1845.356,1092.664Z" transform="translate(-298.314 449.988)" />
                                <path id="Path_3178" data-name="Path 3178" d="M1885.854,1087.784a.726.726,0,0,1-.727-.727v-3.8a.727.727,0,1,1,1.453,0v3.8A.727.727,0,0,1,1885.854,1087.784Z" transform="translate(-334.34 454.465)" />
                                <path id="Path_3179" data-name="Path 3179" d="M1991.574,1126.95a.727.727,0,0,1-.6-1.134l1.8-2.655a.727.727,0,1,1,1.2.814l-1.795,2.655A.726.726,0,0,1,1991.574,1126.95Z" transform="translate(-426.718 419.246)" />
                                <path id="Path_3180" data-name="Path 3180" d="M1958.675,1106.319a.727.727,0,0,1-.661-1.028l1.424-3.135a.727.727,0,0,1,1.323.6l-1.424,3.134A.727.727,0,0,1,1958.675,1106.319Z" transform="translate(-397.971 437.692)" />
                                <path id="Path_3181" data-name="Path 3181" d="M1921.287,1092.663a.743.743,0,0,1-.147-.015.727.727,0,0,1-.565-.859l.732-3.551a.727.727,0,1,1,1.423.293l-.732,3.551A.727.727,0,0,1,1921.287,1092.663Z" transform="translate(-365.3 449.988)" />
                                <path id="Path_3182" data-name="Path 3182" d="M1795.444,1119.469a.725.725,0,0,1-.474-.176,22.891,22.891,0,0,0-14.79-5.234h-.04a22.887,22.887,0,0,0-14.748,5.234.727.727,0,0,1-.948-1.1,24.363,24.363,0,0,1,15.695-5.586h.041a24.364,24.364,0,0,1,15.739,5.586.727.727,0,0,1-.474,1.277Z" transform="translate(-228.666 428.189)" />
                            </g>
                        </svg>