<svg id="copy" xmlns="http://www.w3.org/2000/svg" width="23.354" height="25.477" viewBox="0 0 23.354 25.477">
  <path id="Path_1715" data-name="Path 1715" d="M16.189,126.838H2.919A2.922,2.922,0,0,1,0,123.918V109.587a2.922,2.922,0,0,1,2.919-2.919H3.45a.8.8,0,0,1,0,1.592H2.919a1.329,1.329,0,0,0-1.327,1.327v14.331a1.329,1.329,0,0,0,1.327,1.327h13.27a1.329,1.329,0,0,0,1.327-1.327v-.531a.8.8,0,0,1,1.592,0v.531A2.922,2.922,0,0,1,16.189,126.838Zm0,0" transform="translate(0 -101.36)" fill="#7359be"/>
  <path id="Path_1716" data-name="Path 1716" d="M142.066,19.108H130.919A2.922,2.922,0,0,1,128,16.189V2.919A2.922,2.922,0,0,1,130.919,0h11.147a2.922,2.922,0,0,1,2.919,2.919v13.27A2.922,2.922,0,0,1,142.066,19.108ZM130.919,1.592a1.329,1.329,0,0,0-1.327,1.327v13.27a1.329,1.329,0,0,0,1.327,1.327h11.147a1.329,1.329,0,0,0,1.327-1.327V2.919a1.329,1.329,0,0,0-1.327-1.327Zm0,0" transform="translate(-121.631)" fill="#7359be"/>
</svg>
