<svg xmlns="http://www.w3.org/2000/svg" width="20" height="20" viewBox="0 0 20 20">
  <g id="done_Ico" transform="translate(-278 -306)">
    <g id="correct_ico_green" transform="translate(278 306)">
      <circle id="Ellipse_41" data-name="Ellipse 41" cx="10" cy="10" r="10" fill="#46e54b"/>
      <g id="corrected" transform="translate(2.667 4.263)">
        <path id="Path_1417" data-name="Path 1417" d="M14.938,12.083l-9.3,9.3a.209.209,0,0,1-.3,0L.061,16.1a.209.209,0,0,1,0-.3l1.283-1.283a.21.21,0,0,1,.3,0l3.85,3.849L13.359,10.5a.21.21,0,0,1,.3,0l1.283,1.283A.209.209,0,0,1,14.938,12.083Z" transform="translate(0 -10.443)" fill="#fff"/>
      </g>
    </g>
  </g>
</svg>
