<svg xmlns="http://www.w3.org/2000/svg" width="23.835" height="23.829" viewBox="0 0 23.835 23.829">
  <g id="counter" transform="translate(0 -0.061)">
    <path id="Path_3368" data-name="Path 3368" d="M97.252,2.774a2.713,2.713,0,1,0-2.714,2.713h0a2.716,2.716,0,0,0,2.712-2.713Z" transform="translate(-87.55)"/>
    <path id="Path_3369" data-name="Path 3369" d="M65.009,119.924a3.3,3.3,0,0,0-3.3-3.3h-.369v4.342h-1.4v-4.342h-.369a3.3,3.3,0,0,0-3.3,3.3v3.4h8.737Z" transform="translate(-53.652 -111.135)"/>
    <path id="Path_3370" data-name="Path 3370" d="M.02,367.621H23.852v-7.045H.018Z" transform="translate(-0.017 -343.731)"/>
    <path id="Path_3371" data-name="Path 3371" d="M0,290.571v1.863H23.835v-1.863Z" transform="translate(0 -276.985)"/>
    <path id="Path_3372" data-name="Path 3372" d="M310.824,180.487h7.735v3.728h-7.735Z" transform="translate(-296.353 -172.026)"/>
  </g>
</svg>
