<svg xmlns="http://www.w3.org/2000/svg" xmlns:xlink="http://www.w3.org/1999/xlink" width="48" height="48" viewBox="0 0 48 48">
  <defs>
    <filter id="Subtraction_1" x="0" y="0" width="48" height="48" filterUnits="userSpaceOnUse">
      <feOffset dy="3" input="SourceAlpha"/>
      <feGaussianBlur stdDeviation="3" result="blur"/>
      <feFlood flood-opacity="0.161"/>
      <feComposite operator="in" in2="blur"/>
      <feComposite in="SourceGraphic"/>
    </filter>
  </defs>
  <g id="Group_1143" data-name="Group 1143" transform="translate(-11 -14)">
    <g transform="matrix(1, 0, 0, 1, 11, 14)" filter="url(#Subtraction_1)">
      <path id="Subtraction_1-2" data-name="Subtraction 1" d="M449-2358h20a5,5,0,0,1,5,5v20a5,5,0,0,1-5,5H449a5,5,0,0,1-5-5v-20A5,5,0,0,1,449-2358Z" transform="translate(-435 2364)" fill="#fff"/>
    </g>
    <g id="close" transform="translate(29.827 29.825)">
      <g id="Group_1191" data-name="Group 1191" transform="translate(0 0.001)">
        <path id="Path_1705" data-name="Path 1705" d="M5.745,5.175,10.229.691A.4.4,0,1,0,9.658.119L5.174,4.6.69.119A.4.4,0,0,0,.118.691L4.6,5.175.118,9.659a.4.4,0,0,0,.572.572L5.174,5.746,9.658,10.23a.4.4,0,0,0,.572-.572Z" transform="translate(0 -0.001)" fill="#7359be"/>
      </g>
    </g>
  </g>
</svg>
