<svg xmlns="http://www.w3.org/2000/svg" xmlns:xlink="http://www.w3.org/1999/xlink" width="58" height="58" viewBox="0 0 58 58">
  <defs>
    <filter id="Subtraction_1" x="0" y="0" width="58" height="58" filterUnits="userSpaceOnUse">
      <feOffset dy="3" input="SourceAlpha"/>
      <feGaussianBlur stdDeviation="3" result="blur"/>
      <feFlood flood-opacity="0.161"/>
      <feComposite operator="in" in2="blur"/>
      <feComposite in="SourceGraphic"/>
    </filter>
  </defs>
  <g id="Group_1613" data-name="Group 1613" transform="translate(-881 -18059)">
    <g transform="matrix(1, 0, 0, 1, 881, 18059)" filter="url(#Subtraction_1)">
      <path id="Subtraction_1-2" data-name="Subtraction 1" d="M450.667-2358h26.667a6.667,6.667,0,0,1,6.667,6.667v26.667a6.667,6.667,0,0,1-6.667,6.667H450.667a6.667,6.667,0,0,1-6.667-6.667v-26.667A6.667,6.667,0,0,1,450.667-2358Z" transform="translate(-435 2364)" fill="#fff"/>
    </g>
    <g id="close" transform="translate(898 18073)">
      <g id="Group_1191" data-name="Group 1191">
        <path id="Path_1705" data-name="Path 1705" d="M13.879,12.5,24.711,1.668A.976.976,0,0,0,23.332.287L12.5,11.112,1.667.287A.977.977,0,1,0,.286,1.668L11.113,12.5.286,23.333a.977.977,0,1,0,1.382,1.382L12.5,13.88,23.332,24.712a.977.977,0,0,0,1.382-1.382Z" transform="translate(0 -0.001)" fill="#7359be"/>
      </g>
    </g>
  </g>
</svg>
