<svg xmlns="http://www.w3.org/2000/svg" width="70" height="70" viewBox="0 0 70 70">
<g id="Group_1077" data-name="Group 1077" transform="translate(-3262.241 -4263.241)">
  <g id="Ellipse_263" data-name="Ellipse 263" transform="translate(3262.241 4263.241)" fill="#7359be" stroke="#707070" stroke-width="1" opacity="0.1">
    <circle cx="35" cy="35" r="35" stroke="none"/>
    <circle cx="35" cy="35" r="34.5" fill="none"/>
  </g>
  <circle id="Ellipse_264" data-name="Ellipse 264" cx="27" cy="27" r="27" transform="translate(3270.241 4271.241)" fill="#7359be" opacity="0.5"/>
  <circle id="Ellipse_265" data-name="Ellipse 265" cx="16" cy="16" r="16" transform="translate(3281.241 4282.241)" fill="#7359be"/>
  <g id="corrected" transform="translate(3292.437 4294.123)">
    <path id="Path_1417" data-name="Path 1417" d="M10.252,11.569,3.869,17.951a.144.144,0,0,1-.2,0L.042,14.327a.144.144,0,0,1,0-.2l.881-.881a.144.144,0,0,1,.2,0l2.642,2.642,5.4-5.4a.144.144,0,0,1,.2,0l.88.881A.144.144,0,0,1,10.252,11.569Z" transform="translate(0 -10.443)" fill="#fff"/>
  </g>
</g>
</svg>