<svg xmlns="http://www.w3.org/2000/svg" width="20" height="20" viewBox="0 0 20 20">
  <g id="error_Ico" transform="translate(-310 -214)">
    <circle id="Ellipse_41" data-name="Ellipse 41" cx="10" cy="10" r="10" transform="translate(310 214)" fill="#e24c4b"/>
    <g id="error" transform="translate(315 198.641)">
      <path id="Path_208" data-name="Path 208" d="M10.292,28.361l-4.231-7.51a.985.985,0,0,0-1.705,0L.126,28.361a.991.991,0,0,0,.853,1.476H9.407A1,1,0,0,0,10.292,28.361Z" transform="translate(0)" fill="#beb5b5"/>
      <path id="Path_209" data-name="Path 209" d="M46.644,63.025l4.231,7.51H42.413l4.231-7.51Z" transform="translate(-41.435 -41.682)" fill="#fff"/>
      <g id="Group_209" data-name="Group 209" transform="translate(4.518 23.999)">
        <path id="Path_210" data-name="Path 210" d="M195.908,179.013l.262,1.738a.427.427,0,0,0,.426.361h0a.454.454,0,0,0,.426-.361l.262-1.738a.682.682,0,0,0-.689-.787h0A.7.7,0,0,0,195.908,179.013Z" transform="translate(-195.905 -178.226)" fill="#3f4448"/>
        <circle id="Ellipse_176" data-name="Ellipse 176" cx="0.394" cy="0.394" r="0.394" transform="translate(0.298 3.247)" fill="#3f4448"/>
      </g>
    </g>
  </g>
</svg>
