<svg xmlns="http://www.w3.org/2000/svg" width="61.459" height="46.74" viewBox="0 0 61.459 46.74">
  <g id="g10" transform="translate(0 258.636)">
    <g id="g12" transform="translate(0 -258.636)">
      <path id="path14" fill="#7359be" d="M13.147-127.159a4.186,4.186,0,0,1-1.983,1.214,1.354,1.354,0,0,1-1.754-1.246v-.69c0-.953.816-1.246,1.787-1.352a17.366,17.366,0,0,1,1.951-.062Zm-1.658-6.331a6.865,6.865,0,0,0-2.694.6c-.14.061-.047.276.108.644.137.338.261.509.4.447a5.613,5.613,0,0,1,2.11-.6c.277,0,1.736-.031,1.736,1.951l-1.137.016c-1.353.014-4.029.153-4.029,2.4v.769c0,1.477,1.119,2.444,2.8,2.444a3.193,3.193,0,0,0,2.387-1.168v.893c0,.153.415.153.723.153s.723,0,.723-.153v-5.32c0-2.351-1.416-3.071-3.123-3.071Zm9.986,6.668a2.759,2.759,0,0,1-2.985,2,5.142,5.142,0,0,1-2.785-.846c-.127-.107.027-.367.151-.614s.278-.52.418-.447a4.469,4.469,0,0,0,2.169.815c.74,0,1.342-.167,1.571-.92a1.251,1.251,0,0,0-.831-1.585l-1.909-.751a2.13,2.13,0,0,1-1.418-2.29,2.37,2.37,0,0,1,2.68-2.028,6.8,6.8,0,0,1,2.4.505c.157.06.064.383-.029.646s-.246.568-.386.507a4.9,4.9,0,0,0-1.893-.57c-.46,0-1.137.046-1.354.662a.936.936,0,0,0,.646,1.229l2.034.8A2.335,2.335,0,0,1,21.475-126.822Zm26.07-9.313v1.167c0,.154-.446.231-.753.231s-.77-.077-.77-.231v-1.167c0-.156.478-.2.785-.2S47.545-136.291,47.545-136.135ZM35.28-128.113c0,1.46-.724,2.2-1.816,2.2a1.958,1.958,0,0,1-2.017-2.242v-2.184a2.321,2.321,0,0,1,2.078-2.059c.878,0,1.755.4,1.755,1.936ZM33.7-133.49a2.627,2.627,0,0,0-2.248,1.166v-.873c0-.157-.43-.157-.739-.157s-.737,0-.737.157v11.28c0,.153.432.153.737.153s.739,0,.739-.153V-125.7a2.83,2.83,0,0,0,2.017.874,3.051,3.051,0,0,0,3.356-3.366v-1.965C36.821-132.248,35.834-133.6,33.7-133.49Zm-4.324.293-4.279,11.28c-.062.153-.341.153-.721.153s-.743,0-.68-.153l1.124-3.153-3-8.127c-.062-.157.4-.157.786-.157s.725,0,.784.157l2.17,6.145a1.314,1.314,0,0,1,.063.293,1.381,1.381,0,0,1,.059-.293l2.157-6.145c.06-.157.462-.157.769-.157s.832,0,.77.157Zm24.8,6.375a2.763,2.763,0,0,1-2.987,2,5.163,5.163,0,0,1-2.789-.846c-.122-.107.033-.367.154-.614s.28-.52.414-.447a4.49,4.49,0,0,0,2.173.815c.739,0,1.339-.167,1.566-.92a1.246,1.246,0,0,0-.827-1.585l-1.91-.751a2.128,2.128,0,0,1-1.417-2.29,2.367,2.367,0,0,1,2.68-2.028,6.789,6.789,0,0,1,2.4.505c.157.061.063.383-.03.646s-.245.568-.385.507a4.9,4.9,0,0,0-1.893-.57c-.46,0-1.138.046-1.354.662a.938.938,0,0,0,.649,1.229l2.032.8a2.337,2.337,0,0,1,1.524,2.887ZM47.516-133.2v8.1c0,.153-.431.153-.739.153s-.736,0-.736-.153v-8.1c0-.157.443-.157.752-.157s.723,0,.723.157Zm-4.645,6.038a4.237,4.237,0,0,1-1.987,1.214,1.355,1.355,0,0,1-1.756-1.246v-.69c0-.953.816-1.246,1.785-1.352a17.49,17.49,0,0,1,1.958-.062Zm-1.664-6.331a6.9,6.9,0,0,0-2.694.6c-.137.061-.046.276.109.644.137.339.263.509.4.449a5.549,5.549,0,0,1,2.108-.6c.276,0,1.741-.031,1.741,1.951l-1.14.016c-1.356.014-4.035.153-4.035,2.4v.769c0,1.477,1.124,2.444,2.8,2.444a3.191,3.191,0,0,0,2.387-1.168v.893c0,.153.416.153.724.153s.721,0,.721-.153v-5.32c0-2.351-1.414-3.071-3.123-3.071Zm18.964,6.331a4.252,4.252,0,0,1-1.988,1.214,1.353,1.353,0,0,1-1.753-1.246v-.69c0-.953.815-1.246,1.784-1.352a17.479,17.479,0,0,1,1.958-.062Zm-1.665-6.331a6.893,6.893,0,0,0-2.694.6c-.14.061-.045.276.106.644.14.339.264.509.4.449a5.6,5.6,0,0,1,2.111-.6c.277,0,1.741-.031,1.741,1.951l-1.14.016c-1.355.014-4.035.153-4.035,2.4v.769c0,1.477,1.122,2.444,2.8,2.444a3.194,3.194,0,0,0,2.385-1.168v.893c0,.153.416.153.723.153s.723,0,.723-.153v-5.32C61.63-132.77,60.214-133.49,58.505-133.49ZM5.67-129.682h-3.9v-.861a1.85,1.85,0,0,1,2-1.858,1.894,1.894,0,0,1,1.893,1.908ZM3.764-133.49c-1.866,0-3.5,1.151-3.5,3.057v2.491a3.249,3.249,0,0,0,3.45,3.118,5.183,5.183,0,0,0,3.095-.829c.124-.093.031-.339-.093-.616s-.28-.491-.418-.414a4.666,4.666,0,0,1-2.583.767,1.88,1.88,0,0,1-1.91-1.876v-.8H7.163v-1.877c0-2.258-1.572-3.025-3.4-3.025" transform="translate(-0.218 158.437)"/>
      <path id="path16" fill="#7359be" d="M13.675-247.078s4.835-.344,6.382-3.72c.97-2.115-.418-3.507-2.057-3.332-2.067.217-5.581,2.123-4.325,7.052Zm13.8,7.139a13.448,13.448,0,0,1-4.324,2.076,13.785,13.785,0,0,1-4.837.5,10.381,10.381,0,0,1-5.43-1.967A10.171,10.171,0,0,1,9.265-243.9,19.438,19.438,0,0,1,0-248.4a21.467,21.467,0,0,0,8.565,1.437,10.875,10.875,0,0,1,1.834-7.317,9.361,9.361,0,0,1,7-4.326c4.688-.319,6.839,2.127,7.486,3.771,2.26,5.726-3.233,11.318-9.79,11.27a7.517,7.517,0,0,0,4.05,3.2,17.6,17.6,0,0,0,8.328.43Zm20.858-11.705c-14.618-1.985-13.865,8.283-20.521,11.653C34.58-239.516,42.478-242.589,48.332-251.643Zm13.127,3.056c-7.112,7.908-12.315,1.932-17.927,3.309,3.744-3.152,9.744-5.2,17.927-3.309" transform="translate(0 258.636)"/>
      <path id="path18"  fill="#7359be" d="M24.143-25.444c-.3-.042-.866-.047-1.028-.37,0-1.171.675-1.453,1.613-2,.066-.066.133-.132.2-.192.011-.22.046-1.237.413-1.159.023.065.023.526.066.764a.6.6,0,0,0,.907.348c-.012-.265-.054-.441-.054-.6.066-.2.137-.4.21-.587h.066c.023.186.052.371.082.568.191.639.3.7,1.027.6a1.5,1.5,0,0,0-.263-.465,1.6,1.6,0,0,1,.241-.736.756.756,0,0,1,.111.006,1.64,1.64,0,0,1-.027,1.841.962.962,0,0,1-1.107-.036c-.071-.1-.071-.1-.126-.119-.029.364-1.063.561-1.315-.006a1.089,1.089,0,0,1-.525.514,5.113,5.113,0,0,0-1.038.646c.074.119.386.144.525.155l8.223.06a1.642,1.642,0,0,1-.557.753l-7.642,0" transform="translate(-18.938 70.713)" fill-rule="evenodd"/>
      <path id="path20" d="M305.8-4.817a2.845,2.845,0,0,1-.681-.437c.18-.2.407-.59.489-.626.2.125.421.287.629.413a.785.785,0,0,1-.437.649" transform="translate(-249.979 51.557)" fill-rule="evenodd"/>
      <path id="path22" d="M227.882-18.191c.036.047,2.432-.741,2.707-1.375a1.292,1.292,0,0,0-.43-1.011c.011-.07.256-.644.442-.717a2.481,2.481,0,0,1-.466,3.053c-.646.479-1.309.346-2.253.049" transform="translate(-186.7 64.185)" fill-rule="evenodd"/>
      <path id="path24" d="M161.449-35.928a1.772,1.772,0,0,1,.912-1.931,5.585,5.585,0,0,1,3.557.073,2.112,2.112,0,0,1-.341.793,4.874,4.874,0,0,0-3.322-.132c-.7.311-.616.831-.12,1.334,1.291,1.319,5.228.7,6.316-.036.477-.572-1.217-.706-1.481-.713a1.824,1.824,0,0,1,.1-.758c.323.066.926.013,1.058-.269a1.625,1.625,0,0,0-1.357-.795,1.632,1.632,0,0,1,.316-.985c.546-.251,2.762-1.446,3.408-1.627a1.052,1.052,0,0,1-.431.833c-.836.418-2.355,1.134-2.367,1.164a1.356,1.356,0,0,1,.718,1.77c.932.615.37,1.84-.4,2.258-1.44.789-4.3,1.094-5.772.136a1.751,1.751,0,0,1-.788-1.115" transform="translate(-132.264 80.308)" fill-rule="evenodd"/>
      <path id="path26" d="M155.552-27.351c-.1-.562.023-2.7-.013-3.742a1.622,1.622,0,0,1,.389-1.205c.012-.02.024-.02.041,0a24.939,24.939,0,0,1,.017,3.829,1.86,1.86,0,0,1-.435,1.118" transform="translate(-127.407 73.213)" fill-rule="evenodd"/>
      <path id="path28" d="M283.431-23.122c.041.126,2.36-1.117,2.48-1.595a7.116,7.116,0,0,0-.695-1.314,3.087,3.087,0,0,1,.1-.776c.227.011.579.852.885,1.576.25.58.25.972.9,1.015.608.042,1.261,0,1.864,0a.4.4,0,0,0,.186-.043c.082-.3-.377-.626-.567-.757a5.275,5.275,0,0,1,.178-.753c.909.095.825,1.738.533,2.246a8.506,8.506,0,0,1-2.463.1c-.567-.024-.64-.729-.712-.776a1.852,1.852,0,0,1-2.687,1.08" transform="translate(-232.211 68.702)" fill-rule="evenodd"/>
      <path id="path30" d="M119.966-30.741c-.019-.969-.024-1.979-.073-2.935a5.467,5.467,0,0,1,.442-.769c.018,1.026.048,2.245.031,3.31,0,.252-.054.5.2.657a2.749,2.749,0,0,0,1.439.077c.011-.041.007-.065-.011-.2a2.3,2.3,0,0,1,.336-.645c.018-.019.041-.048.06.029a2.642,2.642,0,0,0,.125.728c.24.179.777.073,1.045.043a1.672,1.672,0,0,1,.246-.884c.041-.031.077-.049.113.005a7.305,7.305,0,0,1,.1.771c.239.281.825.1,1.159.084a1.008,1.008,0,0,0-.423-.74c.076-.246.209-.509.28-.719.789.292.6,1.7.3,2.163a3.191,3.191,0,0,1-1.422.078,1.285,1.285,0,0,1-.2-.209.466.466,0,0,1-.2.209,3.137,3.137,0,0,1-1.3-.037c-.052-.1-.107-.2-.16-.293-.078.168-.121.293-.305.341-1.051.066-1.757.167-1.78-1.068" transform="translate(-98.226 74.961)" fill-rule="evenodd"/>
      <path id="path32" d="M246.439-32.093c-.3-.149.059-.795.2-.968.041-.018.155-.167.466-.435.293-.2.6-.383.914-.557.023-.537-.031-1.99-.018-2.527.037-.073.394-.784.412-.784a18.47,18.47,0,0,1,.09,2.993,1.558,1.558,0,0,1-.585.945,4.607,4.607,0,0,0-.879.568v.042l6.542.054a1.38,1.38,0,0,1-.412.692c-2.175-.03-4.936.053-6.727-.024" transform="translate(-201.808 77.351)" fill-rule="evenodd"/>
      <path id="path34" d="M148.69-39.844a1.249,1.249,0,0,1,1.147-1.165,2.015,2.015,0,0,0,2.152-.281c.089-.053.1-.053.128.054-.294,1.166-1.872,1.338-2.6.98a1.147,1.147,0,0,0-.83.412" transform="translate(-121.819 80.596)" fill-rule="evenodd"/>
      <path id="path36" d="M191.02-44.338a1.377,1.377,0,0,1,.245-.789l3.147-1.561a1.827,1.827,0,0,1-.386.855c-.743.34-2.6,1.315-3.006,1.5" transform="translate(-156.499 84.99)" fill-rule="evenodd"/>
      <path id="path38" d="M238.806-28.283a2.943,2.943,0,0,1-.682-.436c.181-.2.409-.592.491-.633.2.125.425.293.634.417a.79.79,0,0,1-.444.652" transform="translate(-195.092 70.787)" fill-rule="evenodd"/>
      <path id="path40" d="M202.157-23.122a6.207,6.207,0,0,0,2.48-1.595,7.238,7.238,0,0,0-.693-1.314,3.33,3.33,0,0,1,.1-.776c.227.011.579.852.889,1.576.245.58.252.972.892,1.015.614.042,1.265,0,1.864,0a.392.392,0,0,0,.184-.043c.084-.3-.376-.626-.567-.757a5.485,5.485,0,0,1,.18-.753c.907.095.824,1.738.533,2.246a8.47,8.47,0,0,1-2.459.1c-.571-.024-.636-.729-.715-.776a1.853,1.853,0,0,1-2.689,1.08" transform="translate(-165.624 68.702)" fill-rule="evenodd"/>
      <path id="path42" d="M221.851-26.9a2.815,2.815,0,0,1-.681-.436c.179-.2.408-.6.49-.633.2.125.424.292.633.418a.783.783,0,0,1-.442.651" transform="translate(-181.201 69.654)" fill-rule="evenodd"/>
      <path id="path44" d="M76.294-27.126a1.755,1.755,0,0,1,.916-1.924,5.515,5.515,0,0,1,3.562.07,2.127,2.127,0,0,1-.342.79,4.918,4.918,0,0,0-3.328-.131c-.7.31-.616.836-.119,1.338,1.3,1.321,5.229.7,6.322-.042.477-.573-1.219-.7-1.481-.71a1.865,1.865,0,0,1,.094-.761A1.244,1.244,0,0,0,83-28.739a1.108,1.108,0,0,0-.968-.635,2.037,2.037,0,0,1,.234-.783,1.029,1.029,0,0,1,1.088.867,2.365,2.365,0,0,1-.1.884c.932.622.37,1.842-.4,2.266-1.446.782-4.3,1.087-5.778.132a1.764,1.764,0,0,1-.79-1.117" transform="translate(-62.498 71.447)" fill-rule="evenodd"/>
      <path id="path46" d="M102.451-34.7a2.676,2.676,0,0,1-.675-.436c.179-.2.4-.591.49-.633.2.125.419.292.627.418a.785.785,0,0,1-.442.65" transform="translate(-83.384 76.047)" fill-rule="evenodd"/>
    </g>
  </g>
</svg>
