<svg xmlns="http://www.w3.org/2000/svg" width="23.168" height="21.805" viewBox="0 0 23.168 21.805">
  <g id="Group_2022" data-name="Group 2022" transform="translate(-22.937 -448.177)">
    <path id="Path_3363" data-name="Path 3363" d="M90,315h1.59v1.363H90Z" transform="translate(-62.974 146.805)" fill="#7359be"/>
    <path id="Path_3364" data-name="Path 3364" d="M110.25,16.363A1.824,1.824,0,0,0,108.487,15H93.05a1.824,1.824,0,0,0-1.763,1.363Z" transform="translate(-64.203 433.177)" fill="#7359be"/>
    <path id="Path_3365" data-name="Path 3365" d="M90,135v1.363h13.218a3.136,3.136,0,0,1,3.133,3.133v3.682h.909a1.823,1.823,0,0,0,1.821-1.821V135Z" transform="translate(-62.974 318.628)" fill="#7359be"/>
    <path id="Path_3366" data-name="Path 3366" d="M19.076,196.77a1.772,1.772,0,0,0-1.77-1.77H1.821A1.823,1.823,0,0,0,0,196.821v9.986a1.823,1.823,0,0,0,1.821,1.821H17.259a1.823,1.823,0,0,0,1.821-1.821v-1.363ZM5.451,205.9H2.726V204.54H5.451Zm.334-2.726h-1.8a1.258,1.258,0,0,1-1.256-1.256v-1.576a1.258,1.258,0,0,1,1.256-1.256h1.8a1.258,1.258,0,0,1,1.256,1.256v1.576A1.258,1.258,0,0,1,5.785,203.177ZM9.54,205.9H6.814V204.54H9.54Zm4.089,0H10.9V204.54h2.726Zm2.726,0H14.991V204.54h1.363Z" transform="translate(22.938 261.354)" fill="#7359be"/>
    <path id="Path_3367" data-name="Path 3367" d="M90,75h19.08v1.363H90Z" transform="translate(-62.974 375.902)" fill="#7359be"/>
  </g>
</svg>
