<svg xmlns="http://www.w3.org/2000/svg" width="21.383" height="20.045" viewBox="0 0 21.383 20.045">
  <path id="Path_1717" data-name="Path 1717" d="M21.187,25.228l-8.31-8.311a3.1,3.1,0,0,0-4.371,0L.2,25.228a.668.668,0,1,0,.945.945l.53-.53v8.495a1.921,1.921,0,0,0,1.921,1.921H6.933a.418.418,0,0,0,.418-.418V29.46a2.088,2.088,0,0,1,2.088-2.088h2.506a2.088,2.088,0,0,1,2.088,2.088v6.181a.418.418,0,0,0,.418.418h3.341a1.921,1.921,0,0,0,1.921-1.921V25.643l.53.53a.668.668,0,1,0,.945-.945Z" transform="translate(-0.001 -16.014)" fill="#7359be"/>
</svg>
