<svg xmlns="http://www.w3.org/2000/svg" width="31.504" height="17.628" viewBox="0 0 31.504 17.628">
  <g id="Group_1883" data-name="Group 1883" transform="translate(-3323 709)" fill="#777777">
    <g id="Group_1775" data-name="Group 1775" transform="translate(3323 -709)" fill="#777777">
      <path id="Path_3172" data-name="Path 3172" d="M1868.46,1196.41a2.574,2.574,0,1,1,2.574,2.574,2.574,2.574,0,0,1-2.574-2.574Z" transform="translate(-1855.291 -1187.598)"/>
      <path id="Path_3173" data-name="Path 3173" d="M1854.47,1204.45a.661.661,0,0,1-.19.914,5.108,5.108,0,0,1-7.685-5.77.662.662,0,1,1,1.265.39,3.785,3.785,0,0,0,5.694,4.277.661.661,0,0,1,.916.189Z" transform="translate(-1835.734 -1192.279)"/>
      <g id="Group_1774" data-name="Group 1774" transform="translate(-0.005 0.001)">
        <path id="Path_3174" data-name="Path 3174" d="M1769.39,1139.48c-7.035.011-13.313,3.572-15.719,8.814,2.413,5.255,8.712,8.814,15.752,8.814h.033c7.035-.011,13.313-3.574,15.719-8.814C1782.75,1143.03,1776.44,1139.47,1769.39,1139.48Zm.033,15.464a6.651,6.651,0,1,1,6.65-6.65,6.651,6.651,0,0,1-6.65,6.65Z" transform="translate(-1753.666 -1139.481)"/>
        <path id="Path_3183" data-name="Path 3183" d="M1854.28,1205.36a5.108,5.108,0,0,1-7.685-5.77.662.662,0,1,1,1.265.39,3.785,3.785,0,0,0,5.694,4.277.661.661,0,1,1,.727,1.1Z" transform="translate(-1835.729 -1192.28)"/>
        <path id="Path_3184" data-name="Path 3184" d="M1873.61,1196.41a2.574,2.574,0,1,1-2.574-2.573,2.574,2.574,0,0,1,2.574,2.573Z" transform="translate(-1855.286 -1187.599)"/>
      </g>
    </g>
  </g>
</svg>