<svg xmlns="http://www.w3.org/2000/svg" width="26.09" height="44.507" viewBox="0 0 26.09 44.507">
  <g id="Group_18" data-name="Group 18" transform="translate(-5236.293 -1673)">
    <path id="Path_6" data-name="Path 6" d="M5262.383,1798.108c0-1.907-5.84-3.453-13.045-3.453s-13.045,1.546-13.045,3.453,5.841,3.453,13.045,3.453S5262.383,1800.015,5262.383,1798.108Z" transform="translate(0 -84.055)" fill="#adabac"/>
    <path id="Path_7" data-name="Path 7" d="M5273.534,1722.655h3.07v24.555a1.535,1.535,0,0,1-3.07,0Z" transform="translate(-25.731 -34.308)" fill="#494342"/>
    <path id="Path_8" data-name="Path 8" d="M5267.124,1682.208a9.208,9.208,0,1,1-9.208-9.208A9.208,9.208,0,0,1,5267.124,1682.208Z" transform="translate(-8.577)" fill="#ad2943"/>
    <path id="Path_9" data-name="Path 9" d="M5270.916,1689.07a6.139,6.139,0,1,1-6.139-6.139A6.138,6.138,0,0,1,5270.916,1689.07Z" transform="translate(-15.439 -6.862)" fill="#ee3446"/>
  </g>
</svg>
