<svg xmlns="http://www.w3.org/2000/svg" width="20.458" height="25.802" viewBox="0 0 20.458 25.802">
  <g id="shopping-bag" transform="translate(-53.02)">
    <g id="Group_2555" data-name="Group 2555" transform="translate(53.02)">
      <g id="Group_2554" data-name="Group 2554" transform="translate(0)">
        <path id="Path_3112" data-name="Path 3112" d="M73.466,21.277,72.314,6.758a1.815,1.815,0,0,0-1.8-1.668H68.237v-.1a4.987,4.987,0,1,0-9.975,0v.1H55.986a1.814,1.814,0,0,0-1.8,1.666L53.032,21.279A4.2,4.2,0,0,0,57.221,25.8H69.277a4.2,4.2,0,0,0,4.189-4.524ZM59.773,4.987a3.476,3.476,0,0,1,6.952,0v.1H59.773ZM71.25,23.428a2.662,2.662,0,0,1-1.973.862H57.221A2.69,2.69,0,0,1,54.539,21.4L55.692,6.874a.3.3,0,0,1,.294-.272h2.276V8.462a.756.756,0,1,0,1.511,0V6.6h6.952V8.462a.756.756,0,1,0,1.511,0V6.6h2.276a.3.3,0,0,1,.294.274l1.152,14.519A2.662,2.662,0,0,1,71.25,23.428Z" transform="translate(-53.02)" fill="#c1c0c8"/>
      </g>
    </g>
    <g id="Group_2557" data-name="Group 2557" transform="translate(59.623 12.593)">
      <g id="Group_2556" data-name="Group 2556" transform="translate(0)">
        <path id="Path_3113" data-name="Path 3113" d="M191.082,250.114a.756.756,0,0,0-1.069,0l-3.374,3.374-1.3-1.3a.756.756,0,0,0-1.069,1.069l1.832,1.832a.755.755,0,0,0,1.069,0l3.908-3.908A.756.756,0,0,0,191.082,250.114Z" transform="translate(-184.052 -249.893)" fill="#c1c0c8"/>
      </g>
    </g>
  </g>
</svg>
