<svg xmlns="http://www.w3.org/2000/svg" width="72" height="72" viewBox="0 0 72 72">
  <g id="messages_ico" transform="translate(-518 -300)">
    <rect id="Rectangle_1" data-name="Rectangle 1" width="72" height="72" rx="8" transform="translate(518 300)" fill="#01e675"/>
    <g id="Speech_Bubble_48_" transform="translate(387.478 141.282)">
      <g id="Group_1" data-name="Group 1" transform="translate(142.522 169.718)">
        <g id="Speech_Bubble_48_2" data-name="Speech_Bubble_48_" transform="translate(0 0)">
          <g id="Group_2" data-name="Group 2" transform="translate(0 0)">
            <path id="Path_2" data-name="Path 2" d="M6.984,80.233h-3.4l2.4-2.827a10.321,10.321,0,0,0,2.323-5.658A21.129,21.129,0,0,1,0,54.751c0-12,9.378-24.2,24.065-24.2,15.559,0,23.9,11.225,23.9,23.151,0,12-8.431,23.222-23.9,23.222A27.852,27.852,0,0,1,16,75.714a11.766,11.766,0,0,1-9.018,4.519Z" transform="translate(0 -30.548)" fill="#fff"/>
          </g>
        </g>
      </g>
    </g>
  </g>
</svg>
