<svg xmlns="http://www.w3.org/2000/svg" width="90" height="90" viewBox="0 0 90 90">
  <g id="Group_2020" data-name="Group 2020" transform="translate(-143 -533)">
    <g id="Group_2019" data-name="Group 2019">
      <circle id="Ellipse_264" data-name="Ellipse 264" cx="45" cy="45" r="45" transform="translate(143 533)" fill="#7359be" opacity="0.5"/>
      <circle id="Ellipse_265" data-name="Ellipse 265" cx="35" cy="35" r="35" transform="translate(153 543)" fill="#7359be"/>
    </g>
    <g id="Group_2018" data-name="Group 2018" transform="translate(1351.407 429.248)">
      <path id="Path_3359" data-name="Path 3359" d="M-1054.237,202.437a17.042,17.042,0,0,0-17.042,17.042,17.042,17.042,0,0,0,17.042,17.042,17.042,17.042,0,0,0,17.042-17.042A17.042,17.042,0,0,0-1054.237,202.437Zm1.49,1.005.059,9.167a.216.216,0,0,1-.205.217.216.216,0,0,1-.227-.214l-.059-9.2Q-1052.963,203.422-1052.747,203.442Zm-2.335-.047q.42-.022.845-.022.2,0,.406.005l.072,9.767q-.263-.022-.531-.022a6.405,6.405,0,0,0-.959.072Zm-1.158.1q.216-.027.435-.048l-.406,9.165a.216.216,0,0,1-.216.207.216.216,0,0,1-.216-.226Zm-.656.1-.446,10.31a6.377,6.377,0,0,0-1.525,1.167l-9.526-3.277A16.122,16.122,0,0,1-1056.9,203.593Zm-11.83,8.846,8.668,3.25a.216.216,0,0,1,.13.269.216.216,0,0,1-.281.135l-8.7-3.262C-1068.852,212.7-1068.79,212.569-1068.726,212.439Zm-.442.992,9.1,3.4a6.318,6.318,0,0,0-.457,1.417l-9.065-3.642Q-1069.4,214.008-1069.168,213.431Zm-.627,1.87,8.484,3.681a.216.216,0,0,1,.116.275.216.216,0,0,1-.288.121l-8.419-3.653Q-1069.851,215.512-1069.795,215.3Zm3.4,14.747a16.043,16.043,0,0,1-3.953-10.569,16.175,16.175,0,0,1,.3-3.1l9.475,4.1a6.3,6.3,0,0,0,.369,1.351Zm.446.491,5.436-7.236a.216.216,0,0,1,.31-.037.216.216,0,0,1,.035.3l-5.478,7.291C-1065.743,230.75-1065.844,230.645-1065.944,230.539Zm.83.817,6.08-7.648a6.386,6.386,0,0,0,1.115.99l-6.24,7.469Q-1064.653,231.78-1065.115,231.356Zm1.477,1.2,5.86-7.029a.216.216,0,0,1,.312-.021.216.216,0,0,1,.02.3l-5.837,7Q-1063.462,232.684-1063.637,232.557Zm9.4,3.028a16.029,16.029,0,0,1-8.431-2.381l6.692-7.595a6.366,6.366,0,0,0,1.686.226c.109,0,.219,0,.327-.008l6,8.488A16.054,16.054,0,0,1-1054.237,235.585Zm6.952-1.574-5.047-7.564a.216.216,0,0,1,.052-.294.216.216,0,0,1,.308.054l5.077,7.611Q-1047.089,233.917-1047.285,234.011Zm.966-.5-5.47-8.182a6.353,6.353,0,0,0,1.293-.745l5.242,8.269Q-1045.773,233.2-1046.32,233.507Zm1.654-1.074-4.726-7.927a.216.216,0,0,1,.067-.291.216.216,0,0,1,.3.07l4.7,7.885Q-1044.49,232.3-1044.665,232.433Zm6.534-12.954a16.07,16.07,0,0,1-5.678,12.274l-5.21-8.718a6.314,6.314,0,0,0,.966-2.321l9.653-4.177A16.18,16.18,0,0,1-1038.131,219.479Zm-.4-3.594-8.378,3.635a.216.216,0,0,1-.288-.121.216.216,0,0,1,.116-.275l8.447-3.665C-1038.6,215.6-1038.566,215.743-1038.534,215.885Zm-.3-1.125-9.182,3.689a6.316,6.316,0,0,0-.413-1.437l9.184-3.433Q-1039.017,214.159-1038.834,214.761Zm-.664-1.782-8.687,3.257a.216.216,0,0,1-.281-.136.216.216,0,0,1,.13-.269l8.658-3.246Q-1039.585,212.78-1039.5,212.978Zm-10.069,2.246a6.374,6.374,0,0,0-2.112-1.543l-.343-10.156a16.117,16.117,0,0,1,12.017,8.41Z" transform="translate(-109.769 -70.886)" fill="#fff"/>
      <path id="Path_3360" data-name="Path 3360" d="M-1138.87,151.389c.476-6.347-8.03-16.167-7.326-17.568l-3.228,2.541,1.8-3.85c-.852.531-10.328-6.358-16.486-6.358-13.937,0-26.32,11.079-25.236,25.236,1.064,13.9-4.336,19.645,25.236,19.645C-1130.223,171.034-1140.052,167.14-1138.87,151.389Zm-25.136,15.306a18.184,18.184,0,0,1-18.184-18.184,18.184,18.184,0,0,1,18.184-18.184,18.184,18.184,0,0,1,18.184,18.184A18.184,18.184,0,0,1-1164.005,166.695Z" fill="#fff"/>
      <path id="Path_3361" data-name="Path 3361" d="M-609.445,166.314l-2.746-2.12-3.18,6.785Z" transform="translate(-533.414 -35.349)" fill="#fff"/>
      <path id="Path_3362" data-name="Path 3362" d="M-580.072,140.685l-4.067-3.355a1.247,1.247,0,0,0-1.755.169h0l5.991,4.941A1.247,1.247,0,0,0-580.072,140.685Z" transform="translate(-560.805 -10.122)" fill="#fff"/>
    </g>
  </g>
</svg>
