<svg id="Group_360" data-name="Group 360" xmlns="http://www.w3.org/2000/svg" width="15.429" height="13.372" viewBox="0 0 15.429 13.372">
  <path id="Path_285" data-name="Path 285" d="M14.826,39.2a1.982,1.982,0,0,0-1.454-.6h-1.8l-.41-1.093a1.493,1.493,0,0,0-.559-.679,1.431,1.431,0,0,0-.832-.285H5.657a1.431,1.431,0,0,0-.832.285,1.493,1.493,0,0,0-.558.679L3.857,38.6h-1.8A1.982,1.982,0,0,0,.6,39.2,1.982,1.982,0,0,0,0,40.654v7.2a1.982,1.982,0,0,0,.6,1.454,1.982,1.982,0,0,0,1.455.6H13.371a2.058,2.058,0,0,0,2.057-2.057v-7.2A1.982,1.982,0,0,0,14.826,39.2Zm-4.568,7.6a3.467,3.467,0,0,1-2.543,1.057A3.467,3.467,0,0,1,5.171,46.8a3.589,3.589,0,0,1,0-5.087,3.467,3.467,0,0,1,2.543-1.057,3.467,3.467,0,0,1,2.543,1.057,3.589,3.589,0,0,1,0,5.087Z" transform="translate(0 -36.54)" fill="#fff"/>
  <path id="Path_286" data-name="Path 286" d="M194.391,228.4a2.539,2.539,0,1,0,1.791.744A2.441,2.441,0,0,0,194.391,228.4Z" transform="translate(-186.676 -223.275)" fill="#fff"/>
</svg>
