<svg xmlns="http://www.w3.org/2000/svg" width="47.516" height="33.777" viewBox="0 0 47.516 33.777">
  <g id="Group_1208" data-name="Group 1208" transform="translate(-167.484 -549.645)">
    <g id="ar-camera" transform="translate(167.484 508.645)">
      <path id="Path_1708" data-name="Path 1708" d="M36.683,47.284H29.873l-.878-4.39A2.363,2.363,0,0,0,26.684,41H13.534a2.363,2.363,0,0,0-2.311,1.894l-.878,4.39H3.535A3.539,3.539,0,0,0,0,50.819V71.242a3.539,3.539,0,0,0,3.535,3.535H36.683a3.539,3.539,0,0,0,3.535-3.535V50.819A3.539,3.539,0,0,0,36.683,47.284ZM13.534,43.357h13.15l.786,3.928H12.749ZM37.861,71.242a1.18,1.18,0,0,1-1.178,1.178H3.535a1.18,1.18,0,0,1-1.178-1.178V50.819a1.18,1.18,0,0,1,1.178-1.178H36.683a1.18,1.18,0,0,1,1.178,1.178Z" fill="#7359be"/>
      <path id="Path_1709" data-name="Path 1709" d="M153.719,185a8.719,8.719,0,1,0,8.719,8.719A8.729,8.729,0,0,0,153.719,185Zm0,15.082a6.363,6.363,0,1,1,6.363-6.363A6.37,6.37,0,0,1,153.719,200.082Z" transform="translate(-133.61 -132.689)" fill="#7359be"/>
      <path id="Path_1710" data-name="Path 1710" d="M69.949,185h-3.77a1.178,1.178,0,1,0,0,2.357h3.77a1.178,1.178,0,1,0,0-2.357Z" transform="translate(-59.894 -132.689)" fill="#7359be"/>
    </g>
    <circle id="Ellipse_273" data-name="Ellipse 273" cx="8" cy="8" r="8" transform="translate(199 561)" fill="#fff"/>
    <path id="Union_3" data-name="Union 3" d="M892.23-6315v-4.23H888v-2.539h4.23V-6326h2.539v4.231H899v2.539h-4.23v4.23Z" transform="translate(-686 6889)" fill="#7359be"/>
  </g>
</svg>
