<svg xmlns="http://www.w3.org/2000/svg" width="28.271" height="34.665" viewBox="0 0 28.271 34.665">
  <g id="avatar" transform="translate(-123.364 78.666)">
    <path id="Path_287" data-name="Path 287" d="M130.85,34.664h.2a13.653,13.653,0,0,0,13.712-13.07l.31-7.388a13.477,13.477,0,0,0-3.777-9.977A13.644,13.644,0,0,0,131.358,0h-.818a13.644,13.644,0,0,0-9.936,4.23,13.476,13.476,0,0,0-3.777,9.976l.31,7.388A13.653,13.653,0,0,0,130.85,34.664Zm12.178-13.143a11.924,11.924,0,0,1-11.981,11.41h-.2a11.924,11.924,0,0,1-11.981-11.41l-.281-6.694a19.981,19.981,0,0,0,8.675-2.368l-1.351,1.882a.866.866,0,0,0,.638,1.369c.1.008.693.05,1.621.05,3.231,0,10.486-.52,14.868-4.786a11.9,11.9,0,0,1,.3,3.159ZM121.856,5.429a11.922,11.922,0,0,1,8.684-3.7h.818A11.96,11.96,0,0,1,142.44,9.1s-.011.006-.014.01c-3.727,4.317-10.944,4.881-14.148,4.907l3.375-4.7a.867.867,0,0,0-1.31-1.118,19.3,19.3,0,0,1-11.771,4.891,11.746,11.746,0,0,1,3.284-7.663Zm0,0" transform="translate(6.551 -78.665)" fill="#fff"/>
  </g>
</svg>
