<svg id="Group_380" data-name="Group 380" xmlns="http://www.w3.org/2000/svg" width="11.317" height="25.193" viewBox="0 0 11.317 25.193">
  <g id="Group_379" data-name="Group 379">
    <path id="Path_292" data-name="Path 292" d="M146.659,0a5.659,5.659,0,0,0-.738,11.269V18.8h-2.706a.738.738,0,0,0-.738.738v4.921a.738.738,0,0,0,.738.738h3.444a.738.738,0,0,0,.738-.738V11.269A5.659,5.659,0,0,0,146.659,0Zm-.738,23.717h-1.968V20.273h1.968Zm.738-13.876a4.182,4.182,0,1,1,4.182-4.182A4.187,4.187,0,0,1,146.659,9.841Z" transform="translate(-141)" fill="#fff"/>
  </g>
</svg>
