<svg xmlns="http://www.w3.org/2000/svg" width="53.841" height="62.511" viewBox="0 0 53.841 62.511">
  <g id="Group_1756" data-name="Group 1756" transform="translate(-232.659 -395.191)">
    <path id="Path_1713" data-name="Path 1713" d="M750.674,371.815a5.141,5.141,0,0,1-4.578,3.1c-2,0-4.578-3.1-4.578-3.1s-18.7,8.674-22.343,18.1a28.855,28.855,0,0,0,53.841,0A28.892,28.892,0,0,0,750.674,371.815Z" transform="translate(-486.517 49.315)" fill="#949494"/>
    <path id="Path_1714" data-name="Path 1714" d="M760.265,369.136l-3.081-5.337a12.867,12.867,0,0,0,.136-1.762,12.7,12.7,0,0,0-25.392,0,12.857,12.857,0,0,0,.136,1.762l-3.081,5.337a1.93,1.93,0,0,0,1.671,2.9h9.956a5.718,5.718,0,0,0,9.18,0h8.8A1.93,1.93,0,0,0,760.265,369.136Z" transform="translate(-485.045 45.851)" fill="#949494"/>
  </g>
</svg>
