<svg xmlns="http://www.w3.org/2000/svg" xmlns:xlink="http://www.w3.org/1999/xlink" width="36" height="36" viewBox="0 0 36 36">
  <defs>
    <filter id="Ellipse_275" x="0" y="0" width="36" height="36" filterUnits="userSpaceOnUse">
      <feOffset input="SourceAlpha"/>
      <feGaussianBlur stdDeviation="3" result="blur"/>
      <feFlood flood-opacity="0.161"/>
      <feComposite operator="in" in2="blur"/>
      <feComposite in="SourceGraphic"/>
    </filter>
  </defs>
  <g id="Group_1214" data-name="Group 1214" transform="translate(-98 -416)">
    <g transform="matrix(1, 0, 0, 1, 98, 416)" filter="url(#Ellipse_275)">
      <circle id="Ellipse_275-2" data-name="Ellipse 275" cx="9" cy="9" r="9" transform="translate(9 9)" fill="#7359be"/>
    </g>
    <g id="corrected" transform="translate(111 420.557)">
      <path id="Path_1417" data-name="Path 1417" d="M9.355,11.47,3.531,17.295a.131.131,0,0,1-.186,0L.038,13.988a.131.131,0,0,1,0-.185l.8-.8a.131.131,0,0,1,.186,0l2.411,2.411,4.928-4.928a.131.131,0,0,1,.186,0l.8.8A.131.131,0,0,1,9.355,11.47Z" transform="translate(0)" fill="#fff"/>
    </g>
  </g>
</svg>
