<svg xmlns="http://www.w3.org/2000/svg" width="29" height="29" viewBox="0 0 29 29">
  <g id="Group_1759" data-name="Group 1759" transform="translate(-219 -106)">
    <g id="Path_1706" data-name="Path 1706" transform="translate(219 106)" opacity="0.49">
      <path d="M 14.5 28.5 C 10.76045989990234 28.5 7.244760036468506 27.04375076293945 4.600500106811523 24.39949989318848 C 1.956249952316284 21.75523948669434 0.5 18.23954010009766 0.5 14.5 C 0.5 10.76045989990234 1.956249952316284 7.244760036468506 4.600500106811523 4.600500106811523 C 7.244760036468506 1.956249952316284 10.76045989990234 0.5 14.5 0.5 C 18.23954010009766 0.5 21.75523948669434 1.956249952316284 24.39949989318848 4.600500106811523 C 27.04375076293945 7.244760036468506 28.5 10.76045989990234 28.5 14.5 C 28.5 18.23954010009766 27.04375076293945 21.75523948669434 24.39949989318848 24.39949989318848 C 21.75523948669434 27.04375076293945 18.23954010009766 28.5 14.5 28.5 Z" stroke="none"/>
      <path d="M 14.5 1 C 10.89402008056641 1 7.503870010375977 2.404239654541016 4.954059600830078 4.954059600830078 C 2.404239654541016 7.503870010375977 1 10.89402008056641 1 14.5 C 1 18.10597991943359 2.404239654541016 21.49612998962402 4.954059600830078 24.04594039916992 C 7.503870010375977 26.59576034545898 10.89402008056641 28 14.5 28 C 18.10597991943359 28 21.49612998962402 26.59576034545898 24.04594039916992 24.04594039916992 C 26.59576034545898 21.49612998962402 28 18.10597991943359 28 14.5 C 28 10.89402008056641 26.59576034545898 7.503870010375977 24.04594039916992 4.954059600830078 C 21.49612998962402 2.404239654541016 18.10597991943359 1 14.5 1 M 14.5 0 C 22.50812911987305 0 29 6.491870880126953 29 14.5 C 29 22.50812911987305 22.50812911987305 29 14.5 29 C 6.491870880126953 29 0 22.50812911987305 0 14.5 C 0 6.491870880126953 6.491870880126953 0 14.5 0 Z" stroke="none" fill="#fff"/>
    </g>
    <g id="Group_360" data-name="Group 360" transform="translate(226.214 113.857)">
      <path id="Path_285" data-name="Path 285" d="M14.826,39.2a1.982,1.982,0,0,0-1.454-.6h-1.8l-.41-1.093a1.493,1.493,0,0,0-.559-.679,1.431,1.431,0,0,0-.832-.285H5.657a1.431,1.431,0,0,0-.832.285,1.493,1.493,0,0,0-.558.679L3.857,38.6h-1.8A1.982,1.982,0,0,0,.6,39.2,1.982,1.982,0,0,0,0,40.654v7.2a1.982,1.982,0,0,0,.6,1.454,1.982,1.982,0,0,0,1.455.6H13.371a2.058,2.058,0,0,0,2.057-2.057v-7.2A1.982,1.982,0,0,0,14.826,39.2Zm-4.568,7.6a3.467,3.467,0,0,1-2.543,1.057A3.467,3.467,0,0,1,5.171,46.8a3.589,3.589,0,0,1,0-5.087,3.467,3.467,0,0,1,2.543-1.057,3.467,3.467,0,0,1,2.543,1.057,3.589,3.589,0,0,1,0,5.087Z" transform="translate(0 -36.54)" fill="#fff"/>
      <path id="Path_286" data-name="Path 286" d="M194.391,228.4a2.539,2.539,0,1,0,1.791.744A2.441,2.441,0,0,0,194.391,228.4Z" transform="translate(-186.676 -223.275)" fill="#fff"/>
    </g>
  </g>
</svg>
