<svg xmlns="http://www.w3.org/2000/svg" width="33.343" height="37.957" viewBox="0 0 33.343 37.957">
  <g id="Group_1927" data-name="Group 1927" transform="translate(-42.824 -57.453)" style="isolation: isolate">
    <g id="Group_1926" data-name="Group 1926" transform="translate(48.64 58.182)">
      <g id="Group_1925" data-name="Group 1925">
        <path id="Path_3268" data-name="Path 3268" d="M68.881,61.917c-1.467-.7-2.477-.011-3.844.941a6.52,6.52,0,0,0-2.617-3.576c1.419-.937,1.852-1.618,4.111-.575A6.013,6.013,0,0,1,68.881,61.917Z" transform="translate(-60.447 -58.182)" fill="#fff"/>
        <path id="Path_3269" data-name="Path 3269" d="M106.2,71.25a19.607,19.607,0,0,1-4.048-.224,5.406,5.406,0,0,0-2.365-2.682,11.5,11.5,0,0,0,4.244.3A5.173,5.173,0,0,1,106.2,71.25Z" transform="translate(-90.595 -66.38)" fill="#fff"/>
        <path id="Path_3270" data-name="Path 3270" d="M150.216,71.485c-1.9-.356-2.423-.826-4.047-.909a6.978,6.978,0,0,0-1.887-3.035c1.794-.042,2.274.336,4.294.939A9.539,9.539,0,0,1,150.216,71.485Z" transform="translate(-126.485 -65.729)" fill="#fff"/>
        <path id="Path_3271" data-name="Path 3271" d="M68.165,87.062c-1.492.966-2.169,1.7-2.645,2a19.37,19.37,0,0,0-.668-4.793A14.787,14.787,0,0,1,67,82.372,21.933,21.933,0,0,1,68.165,87.062Z" transform="translate(-62.409 -77.696)" fill="#fff"/>
        <path id="Path_3272" data-name="Path 3272" d="M100.35,82.344a25.52,25.52,0,0,1-3.271-.459A23.094,23.094,0,0,0,95.845,77.5a7.443,7.443,0,0,0,3.128.911A15.369,15.369,0,0,1,100.35,82.344Z" transform="translate(-87.411 -73.768)" fill="#fff"/>
        <path id="Path_3273" data-name="Path 3273" d="M138.241,87.245c-1.57-.169-2.285-.165-3.945-.213a13.054,13.054,0,0,0-1.327-3.908c1.688-.03,2.45-.107,4.074-.024A13.552,13.552,0,0,1,138.241,87.245Z" transform="translate(-117.359 -78.254)" fill="#fff"/>
        <path id="Path_3274" data-name="Path 3274" d="M178.664,92.2a9.215,9.215,0,0,1-2.758-.03,9.852,9.852,0,0,0-.928-4.21,14.776,14.776,0,0,0,3.128.328A5.984,5.984,0,0,1,178.664,92.2Z" transform="translate(-151.249 -82.202)" fill="#fff"/>
        <path id="Path_3275" data-name="Path 3275" d="M85.876,104.328a8.107,8.107,0,0,0-3.839,1.474,13.169,13.169,0,0,0-.043-4.671c1.492-.967,2.593-1.523,3.912-1.249A10.284,10.284,0,0,1,85.876,104.328Z" transform="translate(-76.237 -91.764)" fill="#fff"/>
        <path id="Path_3276" data-name="Path 3276" d="M123.056,106.471c-1.574.029-2.279.059-3.8,0a12.9,12.9,0,0,0-.1-3.925c1.585.168,2.338.154,4,.2A16.309,16.309,0,0,1,123.056,106.471Z" transform="translate(-106.214 -93.973)" fill="#fff"/>
        <path id="Path_3277" data-name="Path 3277" d="M161.422,109.419c-1.722-.192-2.495-1.089-3.689-1.179-.006-.708.689-1.92.485-3.542,1.57.169,2.052.727,3.776.974C162.012,107.3,161.456,108.361,161.422,109.419Z" transform="translate(-137.336 -95.706)" fill="#fff"/>
        <path id="Path_3278" data-name="Path 3278" d="M64.912,135.383c-1.443.882-2.129,1.435-3.163,1.941.4-1.824.726-2.847,1.009-4.55.727-.394,1.442-1.043,2.947-1.971C65.464,132.556,65.114,133.538,64.912,135.383Z" transform="translate(-59.906 -116.766)" fill="#fff"/>
        <path id="Path_3279" data-name="Path 3279" d="M100.968,126.419a12.248,12.248,0,0,0-3.564.672,35.1,35.1,0,0,1,.9-4.319,22.5,22.5,0,0,1,3.4-.063C101.676,123.9,101,124.629,100.968,126.419Z" transform="translate(-88.669 -110.209)" fill="#fff"/>
        <path id="Path_3280" data-name="Path 3280" d="M140.469,126.532a31.977,31.977,0,0,0-3.838-.187c-.066-1.86.566-2.694.521-3.62a33.9,33.9,0,0,1,3.554.036C140.712,123.468,140.472,124.586,140.469,126.532Z" transform="translate(-120.309 -110.227)" fill="#fff"/>
        <path id="Path_3281" data-name="Path 3281" d="M178.016,131.847a4.493,4.493,0,0,1-2.468.605c-.029-1.681.209-2.739.243-3.8a13.463,13.463,0,0,0,2.709-.093C178.4,129.9,178.068,130.553,178.016,131.847Z" transform="translate(-151.706 -114.942)" fill="#fff"/>
        <path id="Path_3282" data-name="Path 3282" d="M82,149.076a40.718,40.718,0,0,0-3.783,1.848,8.121,8.121,0,0,1-.341-3.666,14.84,14.84,0,0,1,3.728-1.734A8.529,8.529,0,0,0,82,149.076Z" transform="translate(-72.868 -128.64)" fill="#fff"/>
        <path id="Path_3283" data-name="Path 3283" d="M120.332,145.023a28.852,28.852,0,0,0-4.109-.032,9.758,9.758,0,0,1-.393-3.368c1.513-.095,2.252-.116,4.023-.093A12.188,12.188,0,0,0,120.332,145.023Z" transform="translate(-103.531 -125.412)" fill="#fff"/>
        <path id="Path_3284" data-name="Path 3284" d="M160.6,147.422c-1.636.026-2.612-.83-3.848-1.095a21.437,21.437,0,0,1-.248-3.792c1.038.139,2.009,1.213,3.683,1.2A17.128,17.128,0,0,0,160.6,147.422Z" transform="translate(-136.347 -126.231)" fill="#fff"/>
        <g id="Group_1924" data-name="Group 1924" transform="translate(0 0.525)">
          <path xmlns="http://www.w3.org/2000/svg" id="Path_3285" data-name="Path 3285" d="M56.8,67.448a14.786,14.786,0,0,0-2.147,1.894,5.675,5.675,0,0,0-2.443-3.689,7.221,7.221,0,0,1,1.973-1.781A6.52,6.52,0,0,1,56.8,67.448Z" transform="translate(-52.212 -63.297)" fill="#000"/>
          <path xmlns="http://www.w3.org/2000/svg" id="Path_3286" data-name="Path 3286" d="M89.166,65.017a7.443,7.443,0,0,1-3.128-.911,6.013,6.013,0,0,0-2.35-3.21c2.259,1.043,1.489,1.094,3.113,1.44A5.406,5.406,0,0,1,89.166,65.017Z" transform="translate(-77.604 -60.896)" fill="#000"/>
          <path xmlns="http://www.w3.org/2000/svg" id="Path_3287" data-name="Path 3287" d="M127.991,70.589c-1.624-.083-2.386-.006-4.074.024a5.173,5.173,0,0,0-2.169-2.6c1.765-.175,2.562-.415,4.356-.457A6.978,6.978,0,0,1,127.991,70.589Z" transform="translate(-108.308 -66.267)" fill="#000"/>
          <path xmlns="http://www.w3.org/2000/svg" id="Path_3288" data-name="Path 3288" d="M171.264,75.744a14.777,14.777,0,0,1-3.128-.328,9.539,9.539,0,0,0-1.64-3.005c2.02.6,3.388.984,3.388.984A7.231,7.231,0,0,1,171.264,75.744Z" transform="translate(-144.406 -70.185)" fill="#000"/>
          <path xmlns="http://www.w3.org/2000/svg" id="Path_3289" data-name="Path 3289" d="M81.037,80.687c-1.318-.274-2.419.283-3.912,1.249a21.933,21.933,0,0,0-1.167-4.69c1.367-.952,2.377-1.644,3.844-.941A23.094,23.094,0,0,1,81.037,80.687Z" transform="translate(-71.369 -73.095)" fill="#000"/>
          <path xmlns="http://www.w3.org/2000/svg" id="Path_3290" data-name="Path 3290" d="M117.4,86.35c-1.66-.049-2.412-.034-4-.2a15.369,15.369,0,0,0-1.377-3.93,19.607,19.607,0,0,0,4.048.224A13.054,13.054,0,0,1,117.4,86.35Z" transform="translate(-100.465 -78.097)" fill="#000"/>
          <path xmlns="http://www.w3.org/2000/svg" id="Path_3291" data-name="Path 3291" d="M159.018,88.376c-1.724-.247-2.206-.806-3.776-.974a13.552,13.552,0,0,0-1.2-4.144c1.624.083,2.145.552,4.047.909A9.852,9.852,0,0,1,159.018,88.376Z" transform="translate(-134.36 -78.935)" fill="#000"/>
          <path xmlns="http://www.w3.org/2000/svg" id="Path_3292" data-name="Path 3292" d="M69.917,111.307c-1.505.928-2.219,1.577-2.947,1.971a18.971,18.971,0,0,0,.259-4.646c.477-.3,1.153-1.03,2.645-2A13.17,13.17,0,0,1,69.917,111.307Z" transform="translate(-64.117 -97.795)" fill="#000"/>
          <path xmlns="http://www.w3.org/2000/svg" id="Path_3293" data-name="Path 3293" d="M105.479,104.556a22.5,22.5,0,0,0-3.4.063,10.284,10.284,0,0,0,.029-4.447,25.52,25.52,0,0,0,3.271.459A12.9,12.9,0,0,1,105.479,104.556Z" transform="translate(-92.439 -92.58)" fill="#000"/>
          <path xmlns="http://www.w3.org/2000/svg" id="Path_3294" data-name="Path 3294" d="M142.887,107.35a33.907,33.907,0,0,0-3.554-.036,16.309,16.309,0,0,0,.094-3.719c1.659.048,2.375.044,3.945.213C143.576,105.43,142.881,106.643,142.887,107.35Z" transform="translate(-122.49 -95.341)" fill="#000"/>
          <path xmlns="http://www.w3.org/2000/svg" id="Path_3295" data-name="Path 3295" d="M179.526,113.393a13.462,13.462,0,0,1-2.709.093c.034-1.058.59-2.12.572-3.747a9.215,9.215,0,0,0,2.758.03C179.924,111.285,179.626,112.057,179.526,113.393Z" transform="translate(-152.731 -100.297)" fill="#000"/>
          <path xmlns="http://www.w3.org/2000/svg" id="Path_3296" data-name="Path 3296" d="M81.843,127.5a14.84,14.84,0,0,0-3.728,1.734c.2-1.845.551-2.827.793-4.58a8.107,8.107,0,0,1,3.839-1.474A35.1,35.1,0,0,0,81.843,127.5Z" transform="translate(-73.108 -111.139)" fill="#000"/>
          <path xmlns="http://www.w3.org/2000/svg" id="Path_3297" data-name="Path 3297" d="M119.863,126.457c-1.771-.024-2.509,0-4.023.093.029-1.791.708-2.519.741-3.71,1.524.056,2.229.026,3.8,0C120.428,123.763,119.8,124.6,119.863,126.457Z" transform="translate(-103.541 -110.864)" fill="#000"/>
          <path xmlns="http://www.w3.org/2000/svg" id="Path_3298" data-name="Path 3298" d="M160.19,128c-1.673.008-2.644-1.065-3.683-1.2,0-1.946.243-3.064.237-3.772,1.194.091,1.967.988,3.689,1.179C160.4,125.261,160.16,126.319,160.19,128Z" transform="translate(-136.347 -111.014)" fill="#000"/>
          <path xmlns="http://www.w3.org/2000/svg" id="Path_3299" data-name="Path 3299" d="M64.463,158.162c-1.477.787-2.209,1.213-3.554,1.808a9.653,9.653,0,0,1,.05-3.533c1.035-.506,1.72-1.059,3.163-1.941A8.121,8.121,0,0,0,64.463,158.162Z" transform="translate(-59.114 -136.404)" fill="#000"/>
          <path xmlns="http://www.w3.org/2000/svg" id="Path_3300" data-name="Path 3300" d="M101.245,145.414a8.292,8.292,0,0,0-3.561.857,8.529,8.529,0,0,1-.4-3.553,12.248,12.248,0,0,1,3.564-.672A9.758,9.758,0,0,0,101.245,145.414Z" transform="translate(-88.552 -126.36)" fill="#000"/>
          <path xmlns="http://www.w3.org/2000/svg" id="Path_3301" data-name="Path 3301" d="M140.737,145.546a21.487,21.487,0,0,0-3.607-.486,12.187,12.187,0,0,1-.479-3.493,31.974,31.974,0,0,1,3.838.187A21.44,21.44,0,0,0,140.737,145.546Z" transform="translate(-120.329 -125.974)" fill="#000"/>
          <path xmlns="http://www.w3.org/2000/svg" id="Path_3302" data-name="Path 3302" d="M178.37,149.059a3.39,3.39,0,0,1-2.4.861,17.128,17.128,0,0,1-.413-3.682,4.493,4.493,0,0,0,2.468-.605A14.057,14.057,0,0,0,178.37,149.059Z" transform="translate(-151.717 -129.252)" fill="#000"/>
        </g>
      </g>
    </g>
    <path id="Path_3303" data-name="Path 3303" d="M55.772,98.631l-.977.032c-.451.015-.854-.184-.9-.443L47.787,61.9c-.043-.256.282-.475.728-.489h0c.446-.014.846.18.9.436L56.5,98.134C56.549,98.393,56.223,98.616,55.772,98.631Z" transform="matrix(0.995, 0.105, -0.105, 0.995, 5.615, -8.618)" fill="#373234"/>
  </g>
</svg>