<svg id="Group_21" data-name="Group 21" xmlns="http://www.w3.org/2000/svg" width="15.392" height="12.213" viewBox="0 0 15.392 12.213">
  <path id="Path_12" data-name="Path 12" d="M3028.753,1753.041v4.836a.782.782,0,0,1-.781.781h-9.3a.781.781,0,0,1-.781-.781v-4.836a.78.78,0,0,1,.367-.662l4.647-2.9a.781.781,0,0,1,.828,0l4.647,2.9A.779.779,0,0,1,3028.753,1753.041Zm1.9-2.159-6.915-4.318a.782.782,0,0,0-.828,0l-6.916,4.318a.781.781,0,0,0,.828,1.325l6.5-4.061,6.5,4.06a.781.781,0,0,0,.829-1.325Z" transform="translate(-3015.628 -1746.446)" fill="#7359be"/>
</svg>
