<svg xmlns="http://www.w3.org/2000/svg" width="17.044" height="17.044" viewBox="0 0 17.044 17.044">
  <g id="Group_24" data-name="Group 24" transform="translate(-3167 -1731)">
    <path id="Path_10" data-name="Path 10" d="M3175.521,1731a8.522,8.522,0,1,0,8.522,8.522A8.531,8.531,0,0,0,3175.521,1731Zm0,15.685a7.163,7.163,0,1,1,7.163-7.163A7.171,7.171,0,0,1,3175.521,1746.685Z" fill="#7359be"/>
    <path id="Path_11" data-name="Path 11" d="M3190.377,1750.463a3.915,3.915,0,1,0,3.915,3.915A3.919,3.919,0,0,0,3190.377,1750.463Zm0,6.47a2.555,2.555,0,1,1,2.556-2.555A2.558,2.558,0,0,1,3190.377,1756.933Z" transform="translate(-14.856 -14.856)" fill="#7359be"/>
    <circle id="Ellipse_5" data-name="Ellipse 5" cx="1.47" cy="1.47" r="1.47" transform="translate(3174.052 1738.052)" fill="#7359be"/>
  </g>
</svg>
